Coordinates
version=1
nRows=11
nColumns=40
inDegrees=yes

Units are S.I. units (second, meters, Newtons, ...)
Angles are in degrees.

endheader
time	pelvis_tilt	pelvis_list	pelvis_rotation	pelvis_tx	pelvis_ty	pelvis_tz	hip_flexion_r	hip_adduction_r	hip_rotation_r	knee_angle_r	knee_angle_r_beta	ankle_angle_r	subtalar_angle_r	mtp_angle_r	hip_flexion_l	hip_adduction_l	hip_rotation_l	knee_angle_l	knee_angle_l_beta	ankle_angle_l	subtalar_angle_l	mtp_angle_l	lumbar_extension	lumbar_bending	lumbar_rotation	arm_flex_r	arm_add_r	arm_rot_r	elbow_flex_r	pro_sup_r	wrist_flex_r	wrist_dev_r	arm_flex_l	arm_add_l	arm_rot_l	elbow_flex_l	pro_sup_l	wrist_flex_l	wrist_dev_l
     21.95442857	     -5.06177097	     -4.92265144	      2.65793731	      0.82631915	      0.93007838	      0.51511315	      7.41549515	      4.35048589	    -15.32684638	     11.47624692	     11.47624692	     10.87964157	     -0.53226912	     -5.75667061	     34.22440686	     -9.66718903	      1.13269968	     37.37084047	     37.37084047	     12.01876395	    -16.96148057	     16.15689256	     -8.49233123	      6.16485206	      2.89861958	     31.14581140	    -16.12196253	     -7.66276162	     67.12599497	     45.13146794	      0.00000000	      0.00000000	      2.47085870	     -6.13760062	      2.23271908	     21.97997547	     45.69753530	      0.00000000	      0.00000000
     21.96635714	     -5.06549152	     -4.74055718	      2.77760314	      0.82575855	      0.92995491	      0.51475392	      6.54279039	      4.23517433	    -15.57621692	     10.71123144	     10.71123144	     10.95878843	      0.11490664	     -6.30696058	     33.89192083	     -9.17267021	      1.31560961	     33.51485841	     33.51485841	     10.22441845	    -16.38923741	     12.75766075	     -8.75543323	      5.96009328	      3.25091184	     31.22662499	    -16.84838299	     -7.26361338	     73.74104465	     44.92127785	      0.00000000	      0.00000000	      1.76625350	     -6.13933605	      2.66341053	     20.71088894	     45.62521368	      0.00000000	      0.00000000
     21.97828571	     -5.23129305	     -4.67778024	      2.84583308	      0.82504231	      0.92940409	      0.51441033	      6.07946645	      4.21422210	    -15.54333368	     10.36778243	     10.36778243	     11.23832224	      0.23976308	     -6.39038198	     33.98302545	     -8.86587706	      1.45762845	     30.33438263	     30.33438263	      9.93632794	    -14.83523173	     12.77449358	     -8.63693472	      5.86893318	      3.08054066	     33.01582468	    -16.67619022	     -7.46262437	     75.45365216	     44.88482088	      0.00000000	      0.00000000	      0.59837237	     -6.28219463	      2.75891880	     20.14325818	     45.58614248	      0.00000000	      0.00000000
     21.99021429	     -5.41377734	     -4.76136285	      2.93044638	      0.82441731	      0.92865799	      0.51396553	      5.60090896	      4.32966720	    -15.77214190	      9.96619018	      9.96619018	     11.48426478	      0.74805741	     -6.45893272	     34.14282708	     -8.73832977	      1.55322823	     27.43073829	     27.43073829	      9.33779207	    -12.98482932	     11.71181092	     -8.57868138	      5.93918687	      3.00239502	     34.44415716	    -16.74682135	     -7.47892761	     78.41477856	     44.81218614	      0.00000000	      0.00000000	     -0.67868495	     -6.38600807	      2.97467264	     20.18334310	     45.51224303	      0.00000000	      0.00000000
     22.00214286	     -5.55991982	     -4.70490663	      2.98790120	      0.82387581	      0.92800697	      0.51338470	      5.17469798	      4.27199888	    -15.82026535	      9.76689808	      9.76689808	     11.80677102	      0.93412136	     -6.52331305	     34.19880257	     -8.47752168	      1.53615132	     24.74950237	     24.74950237	      8.95877895	    -11.14801419	     11.63744805	     -8.50851949	      5.85392710	      3.00084051	     36.03246082	    -16.81995150	     -7.55976260	     80.11919279	     44.77319340	      0.00000000	      0.00000000	     -1.77303771	     -6.49708306	      3.06630130	     20.00129922	     45.46892836	      0.00000000	      0.00000000
     22.01407143	     -5.69755914	     -4.79227498	      3.06701755	      0.82349774	      0.92718448	      0.51265133	      4.69585793	      4.34503635	    -16.13661590	      9.50846684	      9.50846684	     12.22091486	      1.58989369	     -6.35436039	     34.32489830	     -8.39813392	      1.32030485	     22.45034331	     22.45034331	      8.16277659	     -9.25969833	     10.20543280	     -8.47868781	      5.96653187	      3.17103126	     37.15750549	    -17.20768145	     -7.52453504	     83.14192456	     44.71110266	      0.00000000	      0.00000000	     -3.09530456	     -6.68571445	      3.49746794	     20.90477211	     45.33606870	      0.00000000	      0.00000000
     22.02600000	     -5.91223063	     -4.85287949	      3.14922105	      0.82307282	      0.92627099	      0.51173567	      4.37373004	      4.38469103	    -16.19633824	      9.36310113	      9.36310113	     12.51202663	      1.66957500	     -6.40030380	     34.57225036	     -8.20630385	      1.27483107	     20.57537748	     20.57537748	      7.76351024	     -7.96661863	     10.42694361	     -8.27810622	      6.05035124	      3.25205679	     38.79612679	    -17.36031385	     -7.68756463	     84.20875465	     44.69270371	      0.00000000	      0.00000000	     -3.96750753	     -6.68932397	      3.57020569	     20.67808488	     45.30345322	      0.00000000	      0.00000000
     22.03792857	     -5.95814275	     -4.80181303	      3.20200736	      0.82295862	      0.92566906	      0.51069767	      3.78959987	      4.30555357	    -16.29957638	      9.12859290	      9.12859290	     12.83203838	      2.02898983	     -6.34807513	     34.50644325	     -7.99212513	      0.76411405	     18.88729277	     18.88729277	      7.32501117	     -6.61081080	     10.39983136	     -8.32553906	      6.02101224	      3.04629398	     40.17622328	    -17.14754192	     -7.64820719	     85.90192763	     44.64928383	      0.00000000	      0.00000000	     -5.03096358	     -6.79225508	      3.67430407	     20.64819482	     45.25635814	      0.00000000	      0.00000000
     22.04985714	     -6.01005108	     -4.83707786	      3.26460191	      0.82307737	      0.92492865	      0.50952662	      3.18224463	      4.30409826	    -16.54303181	      8.87312217	      8.87312217	     13.18093833	      2.59150699	     -6.16277894	     34.51667563	     -7.86343257	      0.13867068	     17.68089918	     17.68089918	      6.82038719	     -5.62235794	     10.06291756	     -8.31377521	      6.06128049	      2.90449220	     41.43770967	    -17.15324537	     -7.59401118	     87.78950336	     44.60314164	      0.00000000	      0.00000000	     -6.13995612	     -6.87451394	      3.81357054	     21.00015416	     45.19616275	      0.00000000	      0.00000000
     22.06178571	     -6.07468831	     -4.88013171	      3.33153962	      0.82340387	      0.92407046	      0.50812343	      2.58908889	      4.28658655	    -16.85298128	      8.65371884	      8.65371884	     13.60880300	      3.23510554	     -5.81343273	     34.52275297	     -7.70529527	     -0.47963120	     16.83744647	     16.83744647	      6.27745466	     -5.17356309	      9.46462450	     -8.23792292	      6.16267895	      2.96122256	     42.49613949	    -17.31947641	     -7.55437606	     89.55520216	     44.56651979	      0.00000000	      0.00000000	     -7.21157062	     -6.97080809	      4.04108264	     21.63766145	     45.11831939	      0.00000000	      0.00000000
     22.07371429	     -6.23688769	     -4.98003126	      3.35770296	      0.82370869	      0.92299865	      0.50665724	      2.18393508	      4.32289411	    -16.85848268	      8.55658921	      8.55658921	     13.93218923	      3.38194534	     -5.80842584	     34.69365564	     -7.60457086	     -1.08091780	     16.46665701	     16.46665701	      5.88144057	     -5.23837236	      9.54265915	     -8.00686651	      6.32618276	      3.12888263	     43.59660026	    -17.61542736	     -7.72081160	     90.15382745	     44.56049558	      0.00000000	      0.00000000	     -7.88097296	     -6.95464950	      4.08381425	     21.55520435	     45.09581988	      0.00000000	      0.00000000
